<svg xmlns="http://www.w3.org/2000/svg" width="58" height="54" viewBox="0 0 58 54">
  <g id="Group_379" data-name="Group 379" transform="translate(-1632 -759)">
    <g id="Group_378" data-name="Group 378" transform="translate(-9.925 -170.109)">
      <path id="Path_198" data-name="Path 198" d="M-3247.838-19640.229h27.118a18.386,18.386,0,0,1,8.926,3.906c3.7,3.281,3.895,4.6,5.855,9.229a12.752,12.752,0,0,1,.5,8.645s.211.938-3.008,1.082c-2.4.1-6.143.127-10.059.119-.589,0-2.464-.008-3.608-.014l-.391,0c-4.937-.033-9.286-.1-9.286-.1h-14.2a1.672,1.672,0,0,1-1.849-1.729C-3248.229-19624.812-3247.838-19640.229-3247.838-19640.229Z" transform="translate(4901.127 20585)" fill="none" stroke="#000" stroke-width="2"/>
      <path id="Path_199" data-name="Path 199" d="M-3186.635-19632.793s-1.1,5.652,1.4,7.758c2.1,1.77,7.354,1.471,9.116,1.318.175-.018,3.415-.393,3.415-.393" transform="translate(4866.876 20580.834)" fill="none" stroke="#000" stroke-width="2"/>
      <g id="Ellipse_27" data-name="Ellipse 27" transform="translate(1658.398 962.903)" fill="#fff" stroke="#000" stroke-width="2">
        <circle cx="4.838" cy="4.838" r="4.838" stroke="none"/>
        <circle cx="4.838" cy="4.838" r="3.838" fill="none"/>
      </g>
      <g id="Ellipse_28" data-name="Ellipse 28" transform="translate(1682.145 962.903)" fill="#fff" stroke="#000" stroke-width="2">
        <circle cx="4.838" cy="4.838" r="4.838" stroke="none"/>
        <circle cx="4.838" cy="4.838" r="3.838" fill="none"/>
      </g>
      <line id="Line_39" data-name="Line 39" x1="12.867" transform="translate(1644.871 949.051)" fill="none" stroke="#000" stroke-width="2"/>
      <line id="Line_40" data-name="Line 40" x1="14.399" transform="translate(1647.184 954.768)" fill="none" stroke="#000" stroke-width="2"/>
      <line id="Line_41" data-name="Line 41" x1="15.066" transform="translate(1644.871 960.485)" fill="none" stroke="#000" stroke-width="2"/>
    </g>
    <rect id="Rectangle_203" data-name="Rectangle 203" width="58" height="54" transform="translate(1632 759)" fill="none"/>
  </g>
</svg>
