<svg xmlns="http://www.w3.org/2000/svg" width="36.323" height="39.417" viewBox="0 0 36.323 39.417">
  <g id="Group_380" data-name="Group 380" transform="translate(-9.458 -6.309)">
    <g id="Group_379" data-name="Group 379">
      <path id="Path_196" data-name="Path 196" d="M35.877,8.868a1.1,1.1,0,0,1-.464-.108A23.5,23.5,0,0,0,24.177,5.971,23.625,23.625,0,0,0,12.94,8.75a1.025,1.025,0,0,1-1.372-.394.977.977,0,0,1,.4-1.34,26.164,26.164,0,0,1,24.37-.01.98.98,0,0,1,.434,1.33,1.025,1.025,0,0,1-.9.532ZM7.009,19.215a1.069,1.069,0,0,1-.585-.177.967.967,0,0,1-.242-1.37,20.873,20.873,0,0,1,7.575-6.455,23.769,23.769,0,0,1,20.809-.02A20.97,20.97,0,0,1,42.131,17.6a.965.965,0,0,1-.232,1.37,1.03,1.03,0,0,1-1.412-.227,18.818,18.818,0,0,0-6.839-5.794,21.674,21.674,0,0,0-18.963.02,18.818,18.818,0,0,0-6.849,5.844,1.035,1.035,0,0,1-.827.4ZM19.627,42.994a1.013,1.013,0,0,1-.716-.3A20.714,20.714,0,0,1,14.856,37.5a17.215,17.215,0,0,1-2.128-8.563c0-5.853,5.124-10.623,11.428-10.623s11.428,4.76,11.428,10.623a1.009,1.009,0,0,1-2.017,0c0-4.769-4.216-8.652-9.411-8.652s-9.411,3.883-9.411,8.652a15.322,15.322,0,0,0,1.866,7.6,18.741,18.741,0,0,0,3.722,4.769.957.957,0,0,1-.01,1.389A.915.915,0,0,1,19.627,42.994Zm14.454-3.646A11.147,11.147,0,0,1,27.828,37.6a10.448,10.448,0,0,1-4.791-8.652,1.009,1.009,0,0,1,2.017,0,8.479,8.479,0,0,0,3.914,7.016,8.948,8.948,0,0,0,5.114,1.409,13.544,13.544,0,0,0,2.108-.187,1.012,1.012,0,0,1,1.17.8.992.992,0,0,1-.817,1.143,14.778,14.778,0,0,1-2.461.217Zm-4.065,4.07a.768.768,0,0,1-.262-.039,15.5,15.5,0,0,1-7.495-4.139,14.263,14.263,0,0,1-4.368-10.288,6.023,6.023,0,0,1,6.214-5.8,6.023,6.023,0,0,1,6.214,5.8,4.213,4.213,0,0,0,8.392,0c0-7.43-6.556-13.471-14.616-13.471a14.759,14.759,0,0,0-13.335,7.943,12.413,12.413,0,0,0-1.18,5.528,19.257,19.257,0,0,0,1.342,7.1.986.986,0,0,1-.6,1.271,1.023,1.023,0,0,1-1.3-.581,21.5,21.5,0,0,1-1.473-7.795,14.309,14.309,0,0,1,1.382-6.376,16.8,16.8,0,0,1,15.15-9.056c9.169,0,16.633,6.928,16.633,15.442a6.029,6.029,0,0,1-6.214,5.8,6.029,6.029,0,0,1-6.214-5.8,4.037,4.037,0,0,0-4.2-3.833,4.031,4.031,0,0,0-4.2,3.833,12.325,12.325,0,0,0,3.772,8.889,13.693,13.693,0,0,0,6.607,3.636.986.986,0,0,1,.706,1.212A1,1,0,0,1,30.017,43.417Z" transform="translate(3.461 2.309)"/>
    </g>
  </g>
</svg>
