<svg xmlns="http://www.w3.org/2000/svg" width="18.3" height="26.232" viewBox="0 0 18.3 26.232">
  <g id="D-Menu-v3---Pro-_x2B_-after-log-in-_x2B_-7-items" transform="translate(0.5 0.5)">
    <g id="Iconography_x2F_Login-White">
      <g id="icon">
        <path id="Fill-4" d="M3.969,4.569a3.666,3.666,0,0,0,3.6,3.6,3.666,3.666,0,0,0,3.6-3.6,3.666,3.666,0,0,0-3.6-3.6A3.575,3.575,0,0,0,3.969,4.569ZM3,4.569A4.61,4.61,0,0,1,7.569,0,4.584,4.584,0,0,1,12,4.569,4.556,4.556,0,0,1,7.569,9,4.584,4.584,0,0,1,3,4.569Z" transform="translate(1.15)" fill="none" stroke="#525253" stroke-width="1"/>
        <path id="Fill-1" d="M8.65,9a8.46,8.46,0,0,1,8.65,8.166v4.083a.588.588,0,0,1-.577.51H.577A.588.588,0,0,1,0,21.249V17.166A8.46,8.46,0,0,1,8.65,9Zm0,1.021a7.275,7.275,0,0,0-7.5,7.018v3.573H16.147V17.039A7.275,7.275,0,0,0,8.65,10.021Z" transform="translate(0 3.473)" fill="none" stroke="#525253" stroke-width="1"/>
      </g>
    </g>
  </g>
</svg>
