<svg xmlns="http://www.w3.org/2000/svg" width="69" height="69" viewBox="0 0 69 69">
  <g id="Group_336" data-name="Group 336" transform="translate(-189.639 34.951)">
    <g id="Cappuccino" transform="translate(197.991 -24.664)">
      <path id="Path_138" data-name="Path 138" d="M23.742,146.942s-1.888,23.956,20.8,25.406c0,0-3.584,3.356-12.079,3.925S15.215,171.313,13,147.8Z" transform="translate(-11.467 -129.591)" fill="#fcd8b9"/>
      <path id="Path_139" data-name="Path 139" d="M49.088,17.655a7.385,7.385,0,0,0-7.1.419c-.005-.545-.02-.9-.025-1.006A1.66,1.66,0,0,0,40.3,15.49h-.557a12.039,12.039,0,0,0-.082-3.394c-1.191-7-8.02-11.624-8.31-11.818a1.66,1.66,0,0,0-2.263.4C26.951,3.624,23.034,4,18.888,4.4c-3.515.336-7.15.684-10.074,2.626-3.166,2.1-5.035,4.662-5.557,7.607-.052.292-.083.578-.106.861H1.686A1.66,1.66,0,0,0,.028,17.068c-.049.991-1.018,24.351,14.48,31.216a1.664,1.664,0,0,0,.672.142H26.809a1.664,1.664,0,0,0,.672-.142A21.269,21.269,0,0,0,37.751,38.13c9.08-.778,13.4-6.935,14.332-11.975C52.812,22.229,51.637,18.893,49.088,17.655ZM6.526,15.207c.357-2.016,1.745-3.84,4.124-5.421,2.231-1.482,5.3-1.776,8.554-2.087,3.965-.38,8.4-.8,11.458-3.778,1.772,1.471,5.039,4.672,5.729,8.73a8.693,8.693,0,0,1-.005,2.838H6.489C6.5,15.4,6.51,15.3,6.526,15.207Zm19.922,29.9H15.54c-11-5.16-12.132-21.189-12.207-26.3H38.655C38.58,23.918,37.447,39.947,26.449,45.106Zm22.37-19.557c-.658,3.544-3.551,7.8-9.512,9a46.426,46.426,0,0,0,2.517-12.1c.019-.02.041-.036.06-.058.111-.132,2.744-3.214,5.754-1.752C48.75,21.182,49.247,23.246,48.819,25.549Z" transform="translate(0 0.001)" fill="#ea8c7d"/>
    </g>
    <rect id="Rectangle_195" data-name="Rectangle 195" width="69" height="69" transform="translate(189.639 -34.951)" fill="none"/>
  </g>
</svg>
