<svg id="Cappuccino" xmlns="http://www.w3.org/2000/svg" width="68.509" height="63.44" viewBox="0 0 68.509 63.44">
  <path id="Path_138" data-name="Path 138" d="M27.072,146.942S24.6,178.325,54.317,180.225c0,0-4.695,4.4-15.824,5.142S15.9,178.869,13,148.061Z" transform="translate(-10.991 -124.212)" fill="#fcd8b9"/>
  <path id="Path_139" data-name="Path 139" d="M64.306,23.129a9.674,9.674,0,0,0-9.3.548c-.007-.714-.026-1.182-.033-1.318A2.174,2.174,0,0,0,52.8,20.292h-.729a15.771,15.771,0,0,0-.107-4.447C50.4,6.674,41.454.617,41.074.364a2.175,2.175,0,0,0-2.964.53c-2.8,3.853-7.934,4.344-13.365,4.864-4.605.441-9.367.9-13.2,3.44-4.147,2.754-6.6,6.107-7.279,9.966-.068.383-.109.757-.139,1.128H2.208A2.175,2.175,0,0,0,.037,22.359c-.064,1.3-1.334,31.9,18.969,40.894a2.18,2.18,0,0,0,.881.186H35.12A2.18,2.18,0,0,0,36,63.253c6.38-2.826,10.628-7.787,13.454-13.3C61.35,48.933,67,40.866,68.23,34.265,69.185,29.121,67.645,24.75,64.306,23.129ZM8.55,19.922c.467-2.641,2.285-5.031,5.4-7.1,2.923-1.941,6.947-2.326,11.206-2.733,5.194-.5,11-1.053,15.01-4.95,2.322,1.928,6.6,6.12,7.5,11.437a11.388,11.388,0,0,1-.007,3.718H8.5C8.516,20.169,8.528,20.047,8.55,19.922Zm26.1,39.168H20.358C5.949,52.331,4.465,31.333,4.366,24.641H50.639C50.541,31.333,49.057,52.331,34.648,59.091ZM63.954,33.47c-.862,4.642-4.653,10.216-12.461,11.791a60.819,60.819,0,0,0,3.3-15.849c.025-.027.054-.047.078-.076.145-.173,3.595-4.21,7.538-2.3C63.864,27.749,64.514,30.452,63.954,33.47Z" transform="translate(0 0.001)" fill="#ea8c7d"/>
</svg>
