<svg xmlns="http://www.w3.org/2000/svg" width="69" height="69" viewBox="0 0 69 69">
  <g id="Group_337" data-name="Group 337" transform="translate(-189.639 34.951)">
    <rect id="Rectangle_195" data-name="Rectangle 195" width="69" height="69" transform="translate(189.639 -34.951)" fill="none"/>
    <g id="tea" transform="translate(194.875 -14.849)">
      <path id="Path_140" data-name="Path 140" d="M26.259,10.736S24.141,31.163,49.6,32.4c0,0-4.022,2.862-13.556,3.347S16.69,31.517,14.206,11.464Z" transform="translate(-12.324 -9.313)" fill="#fcd8b9"/>
      <path id="Path_141" data-name="Path 141" d="M44.824,18.292c8.594-1.064,12.62-5.724,13.507-9.806A6.827,6.827,0,0,0,55.416.924a6.375,6.375,0,0,0-6.792.123,1.863,1.863,0,0,0-1.67-1.04H1.887A1.863,1.863,0,0,0,.028,1.743c-.012.178-.873,15.17,9.933,23.327h-8.1a1.863,1.863,0,1,0,0,3.725H55.4a1.863,1.863,0,1,0,0-3.725H38.879A22.606,22.606,0,0,0,44.824,18.292ZM53.531,4.138a3.152,3.152,0,0,1,1.16,3.556c-.511,2.349-2.9,5.212-7.917,6.462a33.572,33.572,0,0,0,1.882-8.211C49.213,5.223,51.3,2.83,53.531,4.138Zm-35.6,20.931C5.4,20.874,3.86,8.374,3.729,3.732H45.11c-.131,4.644-1.675,17.142-14.2,21.337H17.932Z" transform="translate(0 0)" fill="#ea8c7d"/>
    </g>
  </g>
</svg>
