<svg id="Group_273" data-name="Group 273" xmlns="http://www.w3.org/2000/svg" width="146.692" height="146.693" viewBox="0 0 146.692 146.693">
  <path id="Path_169" data-name="Path 169" d="M178.661,569.9a38.771,38.771,0,0,1,14.578,5.873l15.957-17.03a73.446,73.446,0,0,0-30.535-21.073Z" transform="translate(-80.335 -533.302)" fill="#fff"/>
  <path id="Path_170" data-name="Path 170" d="M153.319,586.984q-6.446,7.272-6.445,19.172v21.67a21.569,21.569,0,0,0,13.291-6.85q6.446-7.272,6.446-19.173v-21.67A21.576,21.576,0,0,0,153.319,586.984Z" transform="translate(-82.333 -530.633)" fill="#fff"/>
  <path id="Path_171" data-name="Path 171" d="M117.862,604.731q0,11.9,6.445,19.173a20.641,20.641,0,0,0,10.343,6.237V609.084a44.851,44.851,0,0,1,2.726-15.867,35.347,35.347,0,0,1,7.933-12.561,36.863,36.863,0,0,1,12.478-8.263,39.9,39.9,0,0,1,10.648-2.658v-35.36a73.853,73.853,0,0,0-10.932-.815,72.978,72.978,0,0,0-39.642,11.65Z" transform="translate(-84.157 -533.561)" fill="#fff"/>
  <path id="Path_172" data-name="Path 172" d="M136.644,642.271a38.618,38.618,0,0,1-7.7-2.233,36.84,36.84,0,0,1-12.479-8.263,35.355,35.355,0,0,1-7.932-12.562,44.842,44.842,0,0,1-2.727-15.866V555.576a73.327,73.327,0,0,0,30.837,119.643Z" transform="translate(-86.151 -532.177)" fill="#fff"/>
  <path id="Path_173" data-name="Path 173" d="M200.217,581.75a36.045,36.045,0,0,1,5.2,9.411,44.852,44.852,0,0,1,2.726,15.867v45.38a73.3,73.3,0,0,0,6.567-86.126Z" transform="translate(-78.98 -531.504)" fill="#fff"/>
  <path id="Path_174" data-name="Path 174" d="M197.448,606.12q0-11.9-6.446-19.172a20.643,20.643,0,0,0-10.342-6.237v21.056a44.845,44.845,0,0,1-2.727,15.867A35.343,35.343,0,0,1,170,630.2a36.844,36.844,0,0,1-12.478,8.263,39.856,39.856,0,0,1-10.647,2.657v35.63a73.87,73.87,0,0,0,8.806.545,72.989,72.989,0,0,0,41.768-13.066Z" transform="translate(-82.333 -530.597)" fill="#fff"/>
</svg>
