<svg xmlns="http://www.w3.org/2000/svg" width="160.608" height="161.101" viewBox="0 0 160.608 161.101">
  <g id="Group_201" data-name="Group 201" transform="translate(23798 20894)" opacity="0.08">
    <circle id="Ellipse_21" data-name="Ellipse 21" cx="80.304" cy="80.304" r="80.304" transform="translate(-23798 -20894)"/>
    <g id="Group_199" data-name="Group 199" transform="translate(-23762.303 -20894)">
      <g id="Group_195" data-name="Group 195">
        <g id="Group_194" data-name="Group 194">
          <path id="Path_134" data-name="Path 134" d="M167.411,434.038a33.371,33.371,0,0,0-7.152-12.137,32.916,32.916,0,0,0-11.45-7.874,37.323,37.323,0,0,0-10.547-2.6l-1.951,1.951v-47.9h-8.922v46.091a36.041,36.041,0,0,0-9.319,2.456,32.916,32.916,0,0,0-11.451,7.874,33.372,33.372,0,0,0-7.152,12.137,47.11,47.11,0,0,0-2.42,15.5v22.756q-11.107-.759-17.447-7.983-7.152-8.127-7.152-21.781V365.48H63.49v77.047a47.48,47.48,0,0,0,2.456,15.532,33.519,33.519,0,0,0,7.152,12.1,32.584,32.584,0,0,0,11.45,7.875,37.724,37.724,0,0,0,12.5,2.781v45.766h8.922V480.49a34.4,34.4,0,0,0,9.283-2.456,32.729,32.729,0,0,0,11.487-7.875,33.519,33.519,0,0,0,7.152-12.1,47.484,47.484,0,0,0,2.42-15.532V419.771q11.107.758,17.447,7.983,7.152,8.127,7.152,21.781v77.047h8.958V449.534A47.1,47.1,0,0,0,167.411,434.038Zm-40.023,8.489q0,13.654-7.152,21.781a23.582,23.582,0,0,1-14.268,7.622v-22.4q0-13.654,7.152-21.781a23.581,23.581,0,0,1,14.268-7.622Z" transform="translate(-63.49 -365.48)" fill="#fff"/>
        </g>
      </g>
      <line id="Line_30" data-name="Line 30" x1="2.42" y1="2.42" transform="translate(72.821 47.897)" fill="#161615" stroke="#161615" stroke-miterlimit="10" stroke-width="2"/>
      <line id="Line_31" data-name="Line 31" x1="35.821" y2="36.629" transform="translate(66.292 17.867)" fill="#161615" stroke="#fff" stroke-miterlimit="10" stroke-width="9"/>
      <g id="Group_196" data-name="Group 196" transform="translate(72.821 45.766)">
        <path id="Path_135" data-name="Path 135" d="M83.65,378.15v2.131l1.951-1.95C84.95,378.258,84.3,378.186,83.65,378.15Z" transform="translate(-83.65 -378.15)" fill="#fff"/>
      </g>
    </g>
  </g>
</svg>
