<svg id="Group_160" data-name="Group 160" xmlns="http://www.w3.org/2000/svg" width="327.279" height="327.709" viewBox="0 0 327.279 327.709">
  <g id="Group_159" data-name="Group 159">
    <path id="Path_33" data-name="Path 33" d="M995.8,214.8l-2.318-.9,2.933-7.574-9.055-3.507L984.43,210.4l-2.317-.9,6.689-17.275,2.32.9-2.9,7.479,9.055,3.506,2.9-7.479,2.317.9Z" transform="translate(-772.745 -183.38)" fill="#fe9469"/>
    <path id="Path_34" data-name="Path 34" d="M1005.464,213.635l-6.259-3.4-4.057,3.337-2.163-1.173,16.323-13.093.135.074-2.09,20.819-2.521-1.37Zm.285-2.294.907-7.2-5.638,4.636Z" transform="translate(-767.231 -179.789)" fill="#fe9469"/>
    <path id="Path_35" data-name="Path 35" d="M1028.077,213.912l-11.268,15.471-.062-.045-2.868-19.173-7.727,10.7-2.029-1.479,11.236-15.429.1.074,2.76,19.283,7.846-10.862Z" transform="translate(-761.582 -177.432)" fill="#fe9469"/>
    <path id="Path_36" data-name="Path 36" d="M1028.012,213.705l3.658,3.516a10.912,10.912,0,0,1,3.18,4.957,8.323,8.323,0,0,1-.068,4.84,10.492,10.492,0,0,1-2.423,4.017,8.944,8.944,0,0,1-4.2,2.555,8.56,8.56,0,0,1-4.621-.035,9.588,9.588,0,0,1-4.062-2.357l-4.3-4.137Zm-7.216,15.418a8.1,8.1,0,0,0,3.2,1.958,5.984,5.984,0,0,0,3.444.059,7.836,7.836,0,0,0,5.1-5.366,6.2,6.2,0,0,0-.176-3.457,7.345,7.345,0,0,0-1.887-2.934l-2.328-2.237-9.516,9.9Z" transform="translate(-755.977 -172.487)" fill="#fe9469"/>
    <path id="Path_37" data-name="Path 37" d="M1050.426,237.976l-15.081,11.745-1.51-1.94,9.459-7.369-11.807.559-.033-.041,3.25-11.007-9.2,7.164-1.48-1.9,15.079-11.747.017.021-4.582,15.132,15.871-.639Z" transform="translate(-751.489 -167.548)" fill="#fe9469"/>
    <path id="Path_38" data-name="Path 38" d="M1042.545,250.955l-3.554-6.173-5.2.717-1.227-2.131,20.76-2.606.077.133-12.682,16.642-1.432-2.488Zm1.445-1.807,4.544-5.661-7.23,1Z" transform="translate(-747.157 -158.764)" fill="#fe9469"/>
    <path id="Path_39" data-name="Path 39" d="M1055.877,248.906l1.961,4.68a10.927,10.927,0,0,1,.948,5.812,8.324,8.324,0,0,1-1.985,4.415,10.469,10.469,0,0,1-3.818,2.723,8.952,8.952,0,0,1-4.868.678,8.559,8.559,0,0,1-4.228-1.867,9.571,9.571,0,0,1-2.791-3.775l-2.306-5.507Zm-12.746,11.284a8.059,8.059,0,0,0,2.161,3.067,5.956,5.956,0,0,0,3.136,1.423,7.846,7.846,0,0,0,6.814-2.9,6.243,6.243,0,0,0,1.212-3.243,7.372,7.372,0,0,0-.568-3.442l-1.246-2.978-12.669,5.307Z" transform="translate(-743.999 -154.633)" fill="#fe9469"/>
    <path id="Path_40" data-name="Path 40" d="M1064.471,273.471l-2.292.648-2.6-9.2-5.425,1.533,2.317,8.211-2.292.647-2.316-8.211-5.5,1.554,2.695,9.542-2.32.654-3.369-11.934,17.827-5.034Z" transform="translate(-741.676 -148.052)" fill="#fe9469"/>
    <path id="Path_41" data-name="Path 41" d="M1048.315,292.729a8.636,8.636,0,0,1-.809-2.916,9.8,9.8,0,0,1,.726-5.112,8.657,8.657,0,0,1,3.016-3.665,9.591,9.591,0,0,1,4.541-1.65,10.236,10.236,0,0,1,5.028.659,8.709,8.709,0,0,1,3.756,2.889,9.09,9.09,0,0,1,1.73,4.573,10.105,10.105,0,0,1-.1,2.948,10.235,10.235,0,0,1-.817,2.532l-2.425-.751a7.585,7.585,0,0,0,.981-4.405,6.138,6.138,0,0,0-1.289-3.2,6.978,6.978,0,0,0-2.816-2.152,7.2,7.2,0,0,0-3.65-.532,7.759,7.759,0,0,0-3.505,1.206,6.115,6.115,0,0,0-2.261,2.633,7.407,7.407,0,0,0,1.322,7.809l-2.107,1.278A10.97,10.97,0,0,1,1048.315,292.729Z" transform="translate(-739.613 -139.209)" fill="#fe9469"/>
    <path id="Path_42" data-name="Path 42" d="M1066.452,304.49l-2.383-.038.154-9.556-5.635-.092-.139,8.531-2.383-.039.139-8.531-5.712-.092-.161,9.914-2.407-.039.2-12.4,18.522.3Z" transform="translate(-739.367 -132.702)" fill="#fe9469"/>
    <path id="Path_43" data-name="Path 43" d="M1047.054,313.047l7.317-3.5a5.364,5.364,0,0,1,.047-.613l.333-2.722-6.764-.824.3-2.467,18.389,2.243-.6,4.907a8.215,8.215,0,0,1-1.07,3.277,5.333,5.333,0,0,1-2.229,2.078,5.569,5.569,0,0,1-3.192.461,6.632,6.632,0,0,1-3.037-1.132,4.908,4.908,0,0,1-1.881-2.564l-7.965,3.726Zm10.455-.88a3.642,3.642,0,0,0,2.285,1.17,3.809,3.809,0,0,0,1.647-.173,3.152,3.152,0,0,0,1.451-1.011,3.659,3.659,0,0,0,.769-1.958l.348-2.849-6.868-.838-.326,2.671A3.574,3.574,0,0,0,1057.51,312.167Z" transform="translate(-739.986 -127.236)" fill="#fe9469"/>
    <path id="Path_44" data-name="Path 44" d="M1049.864,324.885l1.683-6.922-4.265-3.067.582-2.39,16.832,12.427-.035.151L1044,328.389l.678-2.788Zm2.29-.314,7.2-.966-5.926-4.264Z" transform="translate(-741.356 -122.377)" fill="#fe9469"/>
    <path id="Path_45" data-name="Path 45" d="M1056.7,349.057l-17.756-7.079.912-2.286,11.14,4.442-6.451-9.908.021-.047,11.14-2.758-10.829-4.317.892-2.238,17.755,7.081-.01.023-15.373,3.69,8.57,13.375Z" transform="translate(-743.922 -116.109)" fill="#fe9469"/>
    <path id="Path_46" data-name="Path 46" d="M1052.941,349.887l-16.382-8.651,1.161-2.2,16.38,8.65Z" transform="translate(-745.131 -108.92)" fill="#fe9469"/>
    <path id="Path_47" data-name="Path 47" d="M1031.232,352.281a8.657,8.657,0,0,1,1.2-2.779,9.821,9.821,0,0,1,3.765-3.534,8.689,8.689,0,0,1,4.648-.972,9.576,9.576,0,0,1,4.573,1.557,10.224,10.224,0,0,1,3.51,3.659,8.725,8.725,0,0,1,1.121,4.6,9.083,9.083,0,0,1-1.513,4.648,10.048,10.048,0,0,1-1.925,2.235,10.212,10.212,0,0,1-2.222,1.465l-1.42-2.1a7.608,7.608,0,0,0,3.521-2.823,6.15,6.15,0,0,0,1-3.3,6.992,6.992,0,0,0-.848-3.439,7.212,7.212,0,0,0-2.514-2.7,7.737,7.737,0,0,0-3.491-1.254,6.112,6.112,0,0,0-3.411.639,7.418,7.418,0,0,0-3.855,6.916l-2.443-.321A11.02,11.02,0,0,1,1031.232,352.281Z" transform="translate(-747.99 -105.91)" fill="#fe9469"/>
    <path id="Path_48" data-name="Path 48" d="M1038.04,368.833a7.542,7.542,0,0,0,1.6-1.442,3.836,3.836,0,0,0,.98-2.289,2.307,2.307,0,0,0-3-2.235,13.46,13.46,0,0,0-2.987,1.388,13.283,13.283,0,0,1-2.391,1.18,4.932,4.932,0,0,1-2.325.226,5.093,5.093,0,0,1-2.511-1.194,5.01,5.01,0,0,1-1.623-2.271,5.12,5.12,0,0,1-.143-2.836,7.041,7.041,0,0,1,1.486-2.933,9.99,9.99,0,0,1,2.508-2.222,11.219,11.219,0,0,1,2.844-1.292l.839,2.1a8.919,8.919,0,0,0-2.381,1.007,7.027,7.027,0,0,0-1.952,1.616,4.451,4.451,0,0,0-1.04,2.5,2.587,2.587,0,0,0,1.069,2.3,2.49,2.49,0,0,0,2.173.556,10.2,10.2,0,0,0,2.758-1.147,21.468,21.468,0,0,1,2.531-1.3,5.51,5.51,0,0,1,2.326-.407,4,4,0,0,1,2.39.978,4.482,4.482,0,0,1,1.779,3.4,6.083,6.083,0,0,1-1.387,3.971,10.913,10.913,0,0,1-4.654,3.385l-.9-1.947A11.031,11.031,0,0,0,1038.04,368.833Z" transform="translate(-750.74 -101.883)" fill="#fe9469"/>
    <path id="Path_49" data-name="Path 49" d="M1007.41,376.608l1.955-1.536,5.016,6.387,7.64-6L1017,369.075l1.955-1.536,11.439,14.57-1.955,1.536-4.951-6.309-7.638,6,4.954,6.306-1.955,1.536Z" transform="translate(-759.915 -94.465)" fill="#fe9469"/>
    <path id="Path_50" data-name="Path 50" d="M1003.138,384.786l6.115-3.655-.8-5.191,2.112-1.261,2.949,20.713-.133.08-16.849-12.406,2.463-1.473Zm1.831,1.414,5.735,4.451-1.118-7.212Z" transform="translate(-765.434 -90.844)" fill="#fe9469"/>
    <path id="Path_51" data-name="Path 51" d="M992.39,404.508l-7.566-17.581.071-.032,17.957,7.31-5.262-12.1,2.306-.995,7.543,17.536-.116.05-17.994-7.461,5.341,12.29Z" transform="translate(-771.37 -87.582)" fill="#fe9469"/>
    <path id="Path_52" data-name="Path 52" d="M991.153,404.2l-4.892,1.346a10.915,10.915,0,0,1-5.884.2,8.283,8.283,0,0,1-4.125-2.532,10.468,10.468,0,0,1-2.216-4.134,8.99,8.99,0,0,1-.05-4.916,8.573,8.573,0,0,1,2.393-3.953,9.579,9.579,0,0,1,4.1-2.283l5.758-1.586Zm-9.563-14.083a8.046,8.046,0,0,0-3.317,1.75,5.989,5.989,0,0,0-1.813,2.93,7.849,7.849,0,0,0,2,7.129,6.222,6.222,0,0,0,3.063,1.616,7.324,7.324,0,0,0,3.484-.124l3.116-.856-3.644-13.242Z" transform="translate(-777.028 -84.932)" fill="#fe9469"/>
    <path id="Path_53" data-name="Path 53" d="M960.234,410.75l-2.353-18.968,2.44-.3,1.477,11.9,5.573-10.425.05-.008,7.786,8.433-1.436-11.569,2.39-.3,2.354,18.968-.024,0-10.644-11.693-7.589,13.955Z" transform="translate(-785.035 -83.321)" fill="#fe9469"/>
    <path id="Path_54" data-name="Path 54" d="M949.848,395.848l7.12.115,2.053-4.835,2.458.039-8.409,19.159-.152,0L945.135,390.9l2.87.048Zm.809,2.164,2.529,6.806,2.852-6.719Z" transform="translate(-791.499 -82.617)" fill="#fe9469"/>
    <path id="Path_55" data-name="Path 55" d="M946.151,409.375l-5.025-.7a10.915,10.915,0,0,1-5.482-2.151,8.306,8.306,0,0,1-2.785-3.958,10.462,10.462,0,0,1-.4-4.672,8.972,8.972,0,0,1,1.9-4.534,8.564,8.564,0,0,1,3.765-2.684,9.579,9.579,0,0,1,4.669-.473l5.914.826Zm-3.2-16.719a8.076,8.076,0,0,0-3.742.292,5.973,5.973,0,0,0-2.823,1.973,7.852,7.852,0,0,0-.986,7.339,6.244,6.244,0,0,0,2.172,2.7,7.342,7.342,0,0,0,3.253,1.269l3.2.446,1.9-13.6Z" transform="translate(-797.979 -83.022)" fill="#fe9469"/>
    <path id="Path_56" data-name="Path 56" d="M920.028,404.632l.613-2.3,9.236,2.457,1.447-5.448-8.244-2.193.613-2.3,8.246,2.193,1.468-5.521-9.583-2.549.62-2.329,11.985,3.189-4.763,17.9Z" transform="translate(-804.233 -84.779)" fill="#fe9469"/>
    <path id="Path_57" data-name="Path 57" d="M911.772,381.039a8.672,8.672,0,0,1,2.919.794,9.8,9.8,0,0,1,4.027,3.234,8.661,8.661,0,0,1,1.613,4.464,9.593,9.593,0,0,1-.9,4.748,10.253,10.253,0,0,1-3.132,3.988,8.732,8.732,0,0,1-4.4,1.754,9.075,9.075,0,0,1-4.815-.847,10.06,10.06,0,0,1-2.481-1.593,10.175,10.175,0,0,1-1.762-1.994l1.883-1.7a7.6,7.6,0,0,0,3.289,3.093,6.165,6.165,0,0,0,3.408.525,6.962,6.962,0,0,0,3.289-1.323,7.177,7.177,0,0,0,2.319-2.867,7.733,7.733,0,0,0,.754-3.629,6.108,6.108,0,0,0-1.109-3.289,7.406,7.406,0,0,0-7.391-2.849l-.021-2.464A11.066,11.066,0,0,1,911.772,381.039Z" transform="translate(-812.951 -87.644)" fill="#fe9469"/>
    <path id="Path_58" data-name="Path 58" d="M892.141,390.74l1.239-2.035,8.163,4.972,2.931-4.815-7.287-4.439,1.242-2.033,7.284,4.437,2.974-4.879-8.469-5.159,1.254-2.057,10.589,6.452-9.637,15.821Z" transform="translate(-818.377 -90.817)" fill="#fe9469"/>
    <path id="Path_59" data-name="Path 59" d="M894.311,369.706l-.752,8.077a4.888,4.888,0,0,1,.5.356l2.166,1.679,4.176-5.384,1.965,1.522-11.354,14.638-3.908-3.031a8.2,8.2,0,0,1-2.265-2.6,5.316,5.316,0,0,1-.641-2.977,5.555,5.555,0,0,1,1.242-2.978,6.612,6.612,0,0,1,2.528-2.026,4.914,4.914,0,0,1,3.167-.3l.885-8.749Zm-4.606,9.43a3.624,3.624,0,0,0-2.175,1.362,3.767,3.767,0,0,0-.7,1.5,3.181,3.181,0,0,0,.122,1.765,3.677,3.677,0,0,0,1.289,1.662l2.268,1.759,4.238-5.466-2.125-1.649A3.567,3.567,0,0,0,889.7,379.136Z" transform="translate(-822.412 -94.266)" fill="#fe9469"/>
    <path id="Path_60" data-name="Path 60" d="M883.516,366.569l5.087,4.987,4.816-2.1,1.757,1.723-19.289,8.106-.11-.109,7.727-19.444,2.05,2.009Zm-.9,2.128-2.851,6.677,6.693-2.909Z" transform="translate(-826.676 -98.422)" fill="#fe9469"/>
    <path id="Path_61" data-name="Path 61" d="M862.1,360.316l15.144-11.658,1.5,1.949-9.5,7.314,11.812-.49.03.039-3.311,10.989,9.237-7.111,1.47,1.908-15.146,11.658-.017-.021,4.671-15.1-15.877.546Z" transform="translate(-833.612 -104.041)" fill="#fe9469"/>
    <path id="Path_62" data-name="Path 62" d="M859.219,354.138l15.786-9.691,1.3,2.119-15.789,9.69Z" transform="translate(-835.074 -106.177)" fill="#fe9469"/>
    <path id="Path_63" data-name="Path 63" d="M869.84,335.516a8.616,8.616,0,0,1,1.783,2.445A9.805,9.805,0,0,1,872.746,343a8.684,8.684,0,0,1-1.533,4.491,9.585,9.585,0,0,1-3.67,3.144,10.246,10.246,0,0,1-4.937,1.156,8.717,8.717,0,0,1-4.534-1.384,9.055,9.055,0,0,1-3.227-3.67,9.99,9.99,0,0,1-.942-2.794,10.16,10.16,0,0,1-.128-2.66l2.531-.149a7.611,7.611,0,0,0,.634,4.467,6.168,6.168,0,0,0,2.335,2.543,6.977,6.977,0,0,0,3.391,1.023,7.2,7.2,0,0,0,3.6-.788,7.767,7.767,0,0,0,2.858-2.363,6.112,6.112,0,0,0,1.189-3.26,7.412,7.412,0,0,0-3.988-6.844l1.524-1.937A11.016,11.016,0,0,1,869.84,335.516Z" transform="translate(-837.853 -111.487)" fill="#fe9469"/>
    <path id="Path_64" data-name="Path 64" d="M852.053,332.788a7.544,7.544,0,0,0,.425,2.11,3.829,3.829,0,0,0,1.468,2.011,2.3,2.3,0,0,0,3.454-1.441,13.433,13.433,0,0,0,.33-3.278,13.28,13.28,0,0,1,.207-2.657,4.949,4.949,0,0,1,.993-2.116,5.1,5.1,0,0,1,2.309-1.551,5.012,5.012,0,0,1,2.781-.235,5.116,5.116,0,0,1,2.511,1.325,7.05,7.05,0,0,1,1.765,2.775,10.028,10.028,0,0,1,.63,3.292,11.212,11.212,0,0,1-.342,3.1l-2.231-.35a9.058,9.058,0,0,0,.35-2.561,7.129,7.129,0,0,0-.393-2.5,4.486,4.486,0,0,0-1.623-2.173,2.594,2.594,0,0,0-2.525-.255,2.487,2.487,0,0,0-1.587,1.584,10.083,10.083,0,0,0-.422,2.957,21.2,21.2,0,0,1-.179,2.84,5.5,5.5,0,0,1-.836,2.208,3.986,3.986,0,0,1-2.062,1.554,4.47,4.47,0,0,1-3.833-.208A6.061,6.061,0,0,1,850.536,336a10.9,10.9,0,0,1-.535-5.73l2.131.222A10.969,10.969,0,0,0,852.053,332.788Z" transform="translate(-839.833 -115.771)" fill="#fe9469"/>
    <path id="Path_65" data-name="Path 65" d="M862.347,302.489l.317,2.466-8.056,1.032,1.234,9.631,8.056-1.031.315,2.464-18.374,2.354-.315-2.464,7.953-1.02-1.233-9.632-7.955,1.02-.316-2.466Z" transform="translate(-842.807 -127.457)" fill="#fe9469"/>
    <path id="Path_66" data-name="Path 66" d="M857.57,294.613l.116,7.123,4.9,1.893.039,2.46L843.2,298.305l0-.154,19.161-8.409.047,2.87Zm-2.139.88-6.72,2.749,6.808,2.632Z" transform="translate(-843.199 -133.922)" fill="#fe9469"/>
    <path id="Path_67" data-name="Path 67" d="M846.2,275.575l18.978,2.473-.009.077-15.455,11.706,13.093,1.653-.325,2.491-18.927-2.469.016-.125,15.6-11.663-13.295-1.681Z" transform="translate(-843.016 -141.107)" fill="#fe9469"/>
    <path id="Path_68" data-name="Path 68" d="M846.309,275.066l1.337-4.894a10.937,10.937,0,0,1,2.832-5.162,8.3,8.3,0,0,1,4.282-2.256,10.456,10.456,0,0,1,4.686.2,8.977,8.977,0,0,1,4.255,2.464,8.586,8.586,0,0,1,2.179,4.075,9.592,9.592,0,0,1-.128,4.693l-1.574,5.757Zm16.99-1.04a8.064,8.064,0,0,0,.188-3.747,5.978,5.978,0,0,0-1.6-3.052,7.834,7.834,0,0,0-7.153-1.916,6.252,6.252,0,0,0-2.953,1.809,7.339,7.339,0,0,0-1.671,3.063l-.852,3.114,13.248,3.622Z" transform="translate(-841.622 -147.698)" fill="#fe9469"/>
    <path id="Path_69" data-name="Path 69" d="M857.3,245.914l17.513,7.653-.984,2.255-10.987-4.8,6.122,10.113-.021.047-11.224,2.393,10.683,4.668-.965,2.206-17.513-7.653.009-.024,15.486-3.186-8.13-13.647Z" transform="translate(-839.788 -156.151)" fill="#fe9469"/>
    <path id="Path_70" data-name="Path 70" d="M873.395,242.683l-3.738,6.063,3.108,4.235-1.289,2.093L859.3,238.059l.08-.131,20.671,3.231-1.506,2.443Zm-2.276-.408-7.144-1.3,4.321,5.884Z" transform="translate(-835.032 -160.201)" fill="#fe9469"/>
    <path id="Path_71" data-name="Path 71" d="M864.638,233.567l3.177-3.955a10.915,10.915,0,0,1,4.656-3.605,8.292,8.292,0,0,1,4.826-.362,10.433,10.433,0,0,1,4.215,2.056,8.959,8.959,0,0,1,2.919,3.955,8.576,8.576,0,0,1,.374,4.607,9.6,9.6,0,0,1-1.99,4.253l-3.738,4.653Zm16,5.821a8.088,8.088,0,0,0,1.665-3.363,5.982,5.982,0,0,0-.247-3.435,7.841,7.841,0,0,0-5.795-4.609,6.242,6.242,0,0,0-3.43.482,7.348,7.348,0,0,0-2.755,2.142l-2.023,2.517,10.707,8.6Z" transform="translate(-832.326 -166.535)" fill="#fe9469"/>
    <path id="Path_72" data-name="Path 72" d="M882.229,214.6l1.665,1.7-6.836,6.68L881,227.017l6.1-5.962,1.666,1.7-6.1,5.962,4,4.086,7.091-6.93,1.683,1.723-8.87,8.668-12.948-13.25Z" transform="translate(-827.772 -172.032)" fill="#fe9469"/>
    <path id="Path_73" data-name="Path 73" d="M905.953,218.959a8.645,8.645,0,0,1-2.172,2.107,9.782,9.782,0,0,1-4.835,1.815,8.666,8.666,0,0,1-4.662-.888,9.586,9.586,0,0,1-3.625-3.2,10.248,10.248,0,0,1-1.834-4.728,8.726,8.726,0,0,1,.735-4.681,9.05,9.05,0,0,1,3.183-3.709,10.072,10.072,0,0,1,2.635-1.323,10.228,10.228,0,0,1,2.615-.5l.5,2.487a7.6,7.6,0,0,0-4.336,1.251,6.166,6.166,0,0,0-2.19,2.666,6.983,6.983,0,0,0-.54,3.5,7.189,7.189,0,0,0,1.284,3.457,7.757,7.757,0,0,0,2.739,2.5,6.117,6.117,0,0,0,3.4.722,7.412,7.412,0,0,0,6.219-4.9l2.131,1.236A11.04,11.04,0,0,1,905.953,218.959Z" transform="translate(-820.088 -177.481)" fill="#fe9469"/>
    <path id="Path_74" data-name="Path 74" d="M908.5,197.364l1.118,2.1-8.436,4.488,2.645,4.977,7.533-4.008,1.12,2.1-7.531,4.008,2.683,5.045,8.754-4.657,1.13,2.127-10.947,5.824-8.7-16.354Z" transform="translate(-815.474 -180.774)" fill="#fe9469"/>
    <path id="Path_75" data-name="Path 75" d="M925,209.948l-6.562-4.767a5.58,5.58,0,0,1-.564.25l-2.55,1.005,2.5,6.341-2.312.912-6.8-17.233,4.6-1.815a8.209,8.209,0,0,1,3.391-.621,5.308,5.308,0,0,1,2.888.968,5.577,5.577,0,0,1,1.929,2.586,6.671,6.671,0,0,1,.452,3.209,4.913,4.913,0,0,1-1.358,2.877l7.075,5.225Zm-5.762-8.773a3.632,3.632,0,0,0-.06-2.565,3.8,3.8,0,0,0-.938-1.366,3.176,3.176,0,0,0-1.581-.8,3.668,3.668,0,0,0-2.086.259l-2.671,1.054,2.538,6.436,2.5-.987A3.571,3.571,0,0,0,919.238,201.175Z" transform="translate(-809.97 -182.474)" fill="#fe9469"/>
    <path id="Path_76" data-name="Path 76" d="M932.129,202.885l-6.886,1.818-.666,5.21-2.378.628,2.9-20.721.151-.041,12.752,16.59-2.776.731Zm-1.366-1.866-4.279-5.866-.924,7.239Z" transform="translate(-803.132 -184.621)" fill="#fe9469"/>
    <path id="Path_77" data-name="Path 77" d="M951.335,186.357l2.246,18.983-2.442.289-1.411-11.908L944.1,204.115l-.051.006-7.736-8.476,1.369,11.577-2.39.283-2.246-18.981.026,0,10.574,11.751,7.669-13.91Z" transform="translate(-797.633 -186.357)" fill="#fe9469"/>
    <path id="Path_78" data-name="Path 78" d="M952.222,186.705l.3,18.523-2.485.039-.3-18.522Z" transform="translate(-789.166 -186.181)" fill="#fe9469"/>
    <path id="Path_79" data-name="Path 79" d="M966.352,205.574a8.651,8.651,0,0,1-3.011.285,9.791,9.791,0,0,1-4.907-1.611,8.67,8.67,0,0,1-3.081-3.611,9.6,9.6,0,0,1-.826-4.761,10.251,10.251,0,0,1,1.527-4.835,8.735,8.735,0,0,1,3.5-3.191,9.067,9.067,0,0,1,4.805-.9,10.154,10.154,0,0,1,5.234,1.866l-1.164,2.253a7.593,7.593,0,0,0-4.166-1.736,6.157,6.157,0,0,0-3.376.708,6.972,6.972,0,0,0-2.612,2.393,7.23,7.23,0,0,0-1.165,3.5,7.8,7.8,0,0,0,.574,3.664,6.106,6.106,0,0,0,2.2,2.687,7.407,7.407,0,0,0,7.919.068l.889,2.3A10.984,10.984,0,0,1,966.352,205.574Z" transform="translate(-786.75 -186.071)" fill="#fe9469"/>
    <path id="Path_80" data-name="Path 80" d="M976.866,191.412a7.532,7.532,0,0,0-2.033-.711,3.856,3.856,0,0,0-2.479.237,2.305,2.305,0,0,0-.52,3.708,13.229,13.229,0,0,0,2.648,1.956,13.258,13.258,0,0,1,2.182,1.533,4.944,4.944,0,0,1,1.313,1.934,5.1,5.1,0,0,1,.155,2.778,5.022,5.022,0,0,1-1.215,2.512,5.14,5.14,0,0,1-2.421,1.483,7.046,7.046,0,0,1-3.287.1,10,10,0,0,1-3.153-1.136,11.249,11.249,0,0,1-2.5-1.876L967,202.186a8.937,8.937,0,0,0,2.024,1.608,7.116,7.116,0,0,0,2.356.939,4.469,4.469,0,0,0,2.7-.288,2.6,2.6,0,0,0,1.507-2.042,2.489,2.489,0,0,0-.553-2.172,10.152,10.152,0,0,0-2.329-1.872,21.149,21.149,0,0,1-2.35-1.6,5.5,5.5,0,0,1-1.472-1.846,3.993,3.993,0,0,1-.286-2.565,4.473,4.473,0,0,1,2.134-3.191,6.061,6.061,0,0,1,4.149-.686,10.866,10.866,0,0,1,5.2,2.463L978.8,192.65A11.317,11.317,0,0,0,976.866,191.412Z" transform="translate(-781.14 -185.333)" fill="#fe9469"/>
  </g>
</svg>
