<svg xmlns="http://www.w3.org/2000/svg" width="21.798" height="21.797" viewBox="0 0 21.798 21.797">
  <path id="_104466_instagram_icon" data-name="104466_instagram_icon" d="M21,4.831H7.632A4.217,4.217,0,0,0,3.419,9.043V22.416a4.217,4.217,0,0,0,4.213,4.212H21a4.217,4.217,0,0,0,4.212-4.212V9.043A4.217,4.217,0,0,0,21,4.831Zm1.208,2.512.482,0v3.695l-3.682.012L19,7.353ZM11.207,13.492a3.83,3.83,0,1,1-.726,2.237A3.835,3.835,0,0,1,11.207,13.492Zm11.886,8.923A2.09,2.09,0,0,1,21,24.5H7.632a2.09,2.09,0,0,1-2.089-2.088V13.492H8.8a5.961,5.961,0,1,0,11.042,0h3.255Z" transform="translate(-3.419 -4.831)"/>
</svg>
