<svg xmlns="http://www.w3.org/2000/svg" width="173.352" height="41.152" viewBox="0 0 173.352 41.152">
  <path id="Union_1" data-name="Union 1" d="M10448.665,20625v-9.752a10.775,10.775,0,0,0,2.914-.73,10.034,10.034,0,0,0,3.417-2.262,9.667,9.667,0,0,0,2.174-3.437,12.4,12.4,0,0,0,.745-4.342v-5.762a5.676,5.676,0,0,1,2.831,1.7,7.632,7.632,0,0,1,1.761,5.248v15.906a19.963,19.963,0,0,1-11.43,3.578A20.479,20.479,0,0,1,10448.665,20625Zm-17.666-19.928a19.991,19.991,0,0,1,5.383-13.672v13.076a12.291,12.291,0,0,0,.745,4.342,9.656,9.656,0,0,0,2.169,3.438,10.091,10.091,0,0,0,3.417,2.262,10.343,10.343,0,0,0,2.106.611v9.021A20.082,20.082,0,0,1,10431,20605.076Zm35.354.594a12.314,12.314,0,0,0-.745-4.342,9.98,9.98,0,0,0-1.424-2.578l3.97-4.229a20.069,20.069,0,0,1-1.8,23.572Zm62,9.814-14.339-14.551.052,13.9h-2.645v-20.115h.135l14.312,14.717-.057-14.121h2.619v20.166Zm-33.346-1.309a6.579,6.579,0,0,1-2.635-2.48,7.1,7.1,0,0,1-.958-3.686v-12.691h2.619v12.609a4.464,4.464,0,0,0,.622,2.334,4.563,4.563,0,0,0,1.687,1.646,4.7,4.7,0,0,0,2.36.605,5.094,5.094,0,0,0,2.449-.59,4.436,4.436,0,0,0,1.713-1.646,4.554,4.554,0,0,0,.621-2.35v-12.609h2.563v12.691a6.96,6.96,0,0,1-.974,3.686,6.636,6.636,0,0,1-2.645,2.48,8.276,8.276,0,0,1-7.423,0Zm104.514.662-7.128-9.479-1.646,1.6.026,7.883h-2.671v-19.52h2.671v7.857l-.078.973.321-.518,7.992-8.312h3.375l-8.07,8.369,8.53,11.15Zm-26.622,0-2.023-5.131h-7.506l-2.081,5.131h-2.588l8.53-20.332h.161l8.535,20.332Zm-8.582-7.4h5.668l-2.779-7.129Zm-10.611,7.4-7.128-9.479-1.65,1.6.03,7.883h-2.676v-19.52h2.676v7.857l-.082.973.326-.518,7.991-8.312h3.375l-8.074,8.369,8.53,11.15Zm-19.659,0v-19.52h2.619v19.52Zm-85.377-9.168a7.634,7.634,0,0,1,1.766-5.248,5.92,5.92,0,0,1,3.639-1.873v5.932a7.614,7.614,0,0,1-1.766,5.248,5.89,5.89,0,0,1-3.639,1.873Zm-6.677,4.059a7.611,7.611,0,0,1-1.761-5.248v-16.291a19.937,19.937,0,0,1,10.85-3.187,20.467,20.467,0,0,1,2.992.223v9.68a10.779,10.779,0,0,0-2.914.725,10.072,10.072,0,0,0-3.417,2.262,9.674,9.674,0,0,0-2.168,3.438,12.163,12.163,0,0,0-.751,4.342v5.768A5.643,5.643,0,0,1,10441.988,20609.729Zm18.033-14.1a10.729,10.729,0,0,0-2.106-.611v-8.82a20.1,20.1,0,0,1,8.354,5.766l-4.363,4.66A11.025,11.025,0,0,0,10460.021,20595.629Z" transform="translate(-10430.499 -20584.502)" fill="#de432b" stroke="rgba(0,0,0,0)" stroke-miterlimit="10" stroke-width="1"/>
</svg>
