<svg xmlns="http://www.w3.org/2000/svg" width="173.32" height="37.524" viewBox="0 0 173.32 37.524">
  <g id="Group_357" data-name="Group 357" transform="translate(-99.68 -522.477)">
    <text id="UNIKA_K" data-name="UNIKA K" transform="translate(158 549)" fill="#525253" font-size="27" font-family="JosefinSans-Regular, Josefin Sans"><tspan x="0" y="0">UNIKA K</tspan></text>
    <g id="Group_261" data-name="Group 261" transform="translate(13.529 -11.084)">
      <path id="Path_151" data-name="Path 151" d="M117.862,551.766a7.121,7.121,0,0,0,1.649,4.9,5.28,5.28,0,0,0,2.646,1.6V552.88a11.473,11.473,0,0,1,.7-4.059,9.042,9.042,0,0,1,2.029-3.213,9.429,9.429,0,0,1,3.192-2.114,10.207,10.207,0,0,1,2.724-.68V533.77a18.885,18.885,0,0,0-2.8-.209,18.667,18.667,0,0,0-10.14,2.98Z" transform="translate(-23.089)" fill="#525253"/>
      <path id="Path_152" data-name="Path 152" d="M178.661,545.916a9.9,9.9,0,0,1,1.969.572,9.424,9.424,0,0,1,3.192,2.114,9.046,9.046,0,0,1,2.029,3.213,11.473,11.473,0,0,1,.7,4.059v11.608a18.759,18.759,0,0,0-7.888-29.809Z" transform="translate(-67.358 -2.993)" fill="#525253"/>
      <path id="Path_153" data-name="Path 153" d="M148.523,581.885a7.12,7.12,0,0,0-1.649,4.9v5.543a5.517,5.517,0,0,0,3.4-1.752,7.121,7.121,0,0,0,1.649-4.9v-5.543A5.519,5.519,0,0,0,148.523,581.885Z" transform="translate(-44.214 -33.91)" fill="#525253"/>
      <path id="Path_154" data-name="Path 154" d="M159.811,587.211a7.12,7.12,0,0,0-1.649-4.9,5.28,5.28,0,0,0-2.645-1.6V586.1a11.471,11.471,0,0,1-.7,4.059,9.041,9.041,0,0,1-2.029,3.213,9.424,9.424,0,0,1-3.192,2.114,10.2,10.2,0,0,1-2.723.68v9.114a18.894,18.894,0,0,0,2.253.139,18.67,18.67,0,0,0,10.684-3.342Z" transform="translate(-44.214 -34.331)" fill="#525253"/>
      <path id="Path_155" data-name="Path 155" d="M99.067,577.752a9.883,9.883,0,0,1-1.969-.571,9.422,9.422,0,0,1-3.192-2.114,9.043,9.043,0,0,1-2.029-3.213,11.47,11.47,0,0,1-.7-4.059v-12.22a18.757,18.757,0,0,0,7.888,30.6Z" transform="translate(0 -16.03)" fill="#525253"/>
    </g>
  </g>
</svg>
