<svg xmlns="http://www.w3.org/2000/svg" width="17.883" height="23.101" viewBox="0 0 17.883 23.101">
  <path id="_104469_pinterest_icon" data-name="104469_pinterest_icon" d="M19.42,4.622c-6.3,0-9.483,4.52-9.483,8.289,0,2.282.864,4.312,2.717,5.068a.456.456,0,0,0,.664-.332c.061-.232.206-.819.271-1.065a.644.644,0,0,0-.191-.74,3.824,3.824,0,0,1-.876-2.6,6.284,6.284,0,0,1,6.533-6.355c3.563,0,5.521,2.177,5.521,5.084,0,3.826-1.693,7.056-4.206,7.056a2.054,2.054,0,0,1-2.095-2.556c.4-1.681,1.171-3.495,1.171-4.709A1.777,1.777,0,0,0,17.657,9.77c-1.419,0-2.559,1.468-2.559,3.434a5.105,5.105,0,0,0,.423,2.1s-1.452,6.153-1.707,7.23a14.884,14.884,0,0,0-.039,5.042.177.177,0,0,0,.316.077,14.165,14.165,0,0,0,2.4-4.343c.163-.59.933-3.647.933-3.647a3.8,3.8,0,0,0,3.242,1.653c4.265,0,7.159-3.888,7.159-9.093C27.82,8.287,24.487,4.622,19.42,4.622Z" transform="translate(-9.937 -4.622)"/>
</svg>
